# xmcd CD database file
#
# Track frame offsets:
#	150
#	22470
#	57367
#	77487
#	96485
#	121000
#	140877
#	160570
#	186870
#	212290
#	238215
#	268080
#
# Disc length: 4003 seconds
#
# Revision: 0
# Processed by: cddbd v1.5.2PL0 Copyright (c) Steve Scherf et al.
# Submitted via: CDex 1.51
#
DISCID=aa0fa10c
DTITLE=Hildebrando Brasil Jazz Trio - A Tribute to Bill Evans
DYEAR=1995
DGENRE=Jazz
TTITLE0=Alfie
TTITLE1=Nardis
TTITLE2=Beautiful Love
TTITLE3=Waltz for Debby
TTITLE4=My foolish heart
TTITLE5=Israel
TTITLE6=Peri´s scope
TTITLE7=Very early
TTITLE8=Blue and green
TTITLE9=Green dolphin street
TTITLE10=Autumn leaves
TTITLE11=Turn out the stars
EXTD=YEAR: 1995
EXTT0=
EXTT1=
EXTT2=
EXTT3=
EXTT4=
EXTT5=
EXTT6=
EXTT7=
EXTT8=
EXTT9=
EXTT10=
EXTT11=
PLAYORDER=
